<?xml version="1.0" ?>
<svg width="800px" height="800px" viewBox="0 0 24 24" fill="none" xmlns="http://www.w3.org/2000/svg"><path d="M18.06 22.16H5.93998C3.98998 22.16 2.49998 21.45 1.73998 20.17C0.989976 18.89 1.08998 17.24 2.03998 15.54L8.09998 4.63C9.09998 2.83 10.48 1.84 12 1.84C13.52 1.84 14.9 2.83 15.9 4.63L21.96 15.54C22.91 17.25 23.02 18.89 22.26 20.17C21.5 21.45 20.01 22.16 18.06 22.16ZM12 3.34C11.06 3.34 10.14 4.06 9.40998 5.36L3.35998 16.27C2.67998 17.49 2.56998 18.61 3.03998 19.42C3.50998 20.22 4.54998 20.67 5.94998 20.67H18.07C19.47 20.67 20.5 20.23 20.98 19.42C21.45 18.61 21.34 17.5 20.66 16.27L14.59 5.36C13.86 4.06 12.94 3.34 12 3.34Z" fill="white"/><path d="M21.4401 20.75C21.2901 20.75 21.1401 20.71 21.0101 20.61L12.0001 14.3L2.99011 20.61C2.65011 20.85 2.18011 20.77 1.95011 20.43C1.71011 20.09 1.79011 19.62 2.13011 19.39L11.5701 12.78C11.8301 12.6 12.1701 12.6 12.4301 12.78L21.8701 19.39C22.2101 19.63 22.2901 20.1 22.0501 20.43C21.9101 20.64 21.6801 20.75 21.4401 20.75Z" fill="white"/><path d="M12 14.14C11.59 14.14 11.25 13.8 11.25 13.39V3C11.25 2.59 11.59 2.25 12 2.25C12.41 2.25 12.75 2.59 12.75 3V13.39C12.75 13.8 12.41 14.14 12 14.14Z" fill="white"/></svg>
